# AST/ASF file generated using VICON BodyLanguage
# -----------------------------------------------
:version 1.10
:name VICON
:units
  mass 1.0
  length 0.45
  angle deg
:documentation
   .ast/.asf automatically generated from VICON data using
   VICON BodyBuilder and BodyLanguage model FoxedUp or BRILLIANT.MOD
:root
   order TX TY TZ RX RY RZ
   axis XYZ
   position 0 0 0  
   orientation 0 0 0 
:bonedata
  begin
     id 1 
     name lhipjoint
     direction 0.567149 -0.783011 0.255413 
     length 2.28399 
     axis 0 0 0  XYZ
  end
  begin
     id 2 
     name lfemur
     direction 0.34202 -0.939693 0  
     length 7.34031  
     axis 0 0 20  XYZ
    dof rx ry rz
    limits (-160.0 20.0)
           (-70.0 70.0)
           (-60.0 70.0)
  end
  begin
     id 3 
     name ltibia
     direction 0.34202 -0.939693 0   
     length 6.9833   
     axis 0 0 20   XYZ
    dof rx
    limits (-10.0 170.0)
  end
  begin
     id 4 
     name lfoot
     direction 0.136498 -0.375025 0.91691   
     length 2.33665   
     axis -90 7.62852e-016 20   XYZ
    dof rx rz
    limits (-45.0 90.0)
           (-70.0 20.0)
  end
  begin
     id 5 
     name ltoes
     direction 1.5367e-011 -4.21617e-011 1   
     length 1.15039   
     axis -90 7.62852e-016 20   XYZ
    dof rx
    limits (-90.0 20.0)
  end
  begin
     id 6 
     name rhipjoint
     direction -0.602854 -0.758518 0.247423   
     length 2.35775  
     axis 0 0 0  XYZ 
  end
  begin
     id 7 
     name rfemur
     direction -0.34202 -0.939693 0   
     length 7.43932   
     axis 0 0 -20   XYZ
    dof rx ry rz
    limits (-160.0 20.0)
           (-70.0 70.0)
           (-70.0 60.0)
  end
  begin
     id 8 
     name rtibia
     direction -0.34202 -0.939693 0   
     length 7.11893   
     axis 0 0 -20   XYZ
    dof rx
    limits (-10.0 170.0)
 end
 begin
     id 9 
     name rfoot
     direction -0.131771 -0.362037 0.922803   
     length 2.53019  
     axis -90 -7.62852e-016 -20   XYZ
    dof rx rz
    limits (-45.0 90.0)
           (-20.0 70.0)
  end
  begin
     id 10 
     name rtoes
     direction -1.53733e-011 -4.21932e-011 1   
     length 1.24596   
     axis -90 -7.62852e-016 -20   XYZ
    dof rx
    limits (-90.0 20.0)
  end
  begin
     id 11 
     name lowerback
     direction 0.0235427 0.999023 -0.0374125   
     length 2.21768   
     axis 0 0 0   XYZ
    dof rx ry rz
    limits (-20.0 45.0)
           (-30.0 30.0)
           (-30.0 30.0)
  end
  begin
     id 12 
     name upperback
     direction 0.0302156 0.996818 -0.073759   
     length 2.20352   
     axis 0 0 0   XYZ
    dof rx ry rz
    limits (-20.0 45.0)
           (-30.0 30.0)
           (-30.0 30.0)
  end
  begin
     id 13 
     name thorax
     direction 0.0187169 0.998235 -0.0563532   
     length 2.22103   
     axis 0 0 0   XYZ
    dof rx ry rz
    limits (-20.0 45.0)
           (-30.0 30.0)
           (-30.0 30.0)
  end
  begin
     id 14 
     name lowerneck
     direction -0.119528 0.987423 0.103481   
     length 1.72948   
     axis 0 0 0   XYZ
    dof rx ry rz
    limits (-20.0 45.0)
           (-30.0 30.0)
           (-30.0 30.0)
  end
  begin
     id 15 
     name upperneck
     direction 0.248049 0.963095 -0.104496   
     length 1.74979   
     axis 0 0 0   XYZ
    dof rx ry rz
    limits (-20.0 45.0)
           (-30.0 30.0)
           (-30.0 30.0)
  end
  begin
     id 16
     name head
     direction 0.0903589 0.994284 -0.056876  
     length 1.78268  
     axis 0 0 0   XYZ
    dof rx ry rz
    limits (-20.0 45.0)
           (-30.0 30.0)
           (-30.0 30.0)
  end
  begin
     id 17 
     name lclavicle
     direction 0.946008 0.242039 -0.215608  
     length 3.80783  
     axis 0 0 0   XYZ
    dof ry rz
    limits (-20.0 10.0)
           (0.0 20.0)
  end
  begin
     id 18 
     name lhumerus
     direction 1 -4.48991e-011 -2.25695e-027   
     length 4.83125   
     axis 180 -30 -90   XYZ
    dof rx ry rz
    limits (-60.0 90.0)
           (-90.0 90.0)
           (-90.0 90.0)
  end
  begin
     id 19
     name lradius
     direction 0.999991 0.00366712 -0.00211721   
     length 3.00391   
     axis 180 -30 -90   XYZ
    dof rx
    limits (-10.0 170.0)
  end
  begin
     id 20
     name lwrist
     direction 0.999991 0.00393016 -0.00141978   
     length 1.50195   
     axis -1.00488e-014 90 90   XYZ
    dof ry
    limits (-180.0 0.0)
 end
  begin
     id 21 
     name lhand
     direction 1 -4.49123e-011 2.72098e-026   
     length 1.2717   
     axis -1.73687e-014 90 90   XYZ
    dof rx rz
    limits (-90.0 90.0)
           (-45.0 45.0)
  end
  begin
     id 22 
     name lfingers
     direction 1 -4.48678e-011 5.4479e-026   
     length 1.02528   
     axis -3.47372e-014 90 90   XYZ
    dof rx
    limits (0.0 90.0)
  end
  begin
     id 23
     name lthumb
     direction 0.707107 -6.34851e-011 0.707107   
     length 1.4721   
     axis -90 45 -1.62303e-014   XYZ
    dof rx rz
    limits (-45.0 45.0)
           (-45.0 45.0)
  end
  begin
     id 24 
     name rclavicle
     direction -0.981723 0.189447 -0.0181673   
     length 3.74989  
     axis 0 0 0   XYZ 
    dof ry rz
    limits (-10.0 20.0)
           (-20.0 0.0)
  end
  begin
     id 25 
     name rhumerus
     direction -1 -4.48985e-011 2.38206e-027  
     length 4.61118   
     axis 180 30 90   XYZ
    dof rx ry rz
    limits (-90.0 60.0)
           (-90.0 90.0)
           (-90.0 90.0)
  end
  begin
     id 26 
     name rradius
     direction -1 -4.48977e-011 7.41019e-027   
     length 2.91491   
     axis 180 30 90   XYZ
    dof rx
    limits (-10.0 170.0)
  end
  begin
     id 27 
     name rwrist
     direction -1 -4.48549e-011 1.3624e-026   
     length 1.45745   
     axis -1.00488e-014 -90 -90   XYZ
    dof ry
    limits (-180.0 0.0)
  end
  begin
     id 28
     name rhand
     direction -1 -4.49107e-011 2.72109e-026   
     length 1.30769   
     axis -1.73687e-014 -90 -90   XYZ
    dof rx rz
    limits (-90.0 90.0)
           (-45.0 45.0)
  end
  begin
     id 29
     name rfingers
     direction -1 -4.48919e-011 5.44468e-026   
     length 1.05429   
     axis -3.47372e-014 -90 -90   XYZ
    dof rx
    limits (0.0 90.0)
  end
  begin
     id 30
     name rthumb
     direction -0.707107 -6.35315e-011 0.707107   
     length 1.51376   
     axis -90 -45 1.62303e-014   XYZ
    dof rx rz
    limits (-45.0 45.0)
           (-45.0 45.0)
  end
:hierarchy
  begin
    root lhipjoint rhipjoint lowerback
    lhipjoint lfemur
    lfemur ltibia
    ltibia lfoot
    lfoot ltoes
    rhipjoint rfemur
    rfemur rtibia
    rtibia rfoot
    rfoot rtoes
    lowerback upperback
    upperback thorax
    thorax lowerneck lclavicle rclavicle
    lowerneck upperneck
    upperneck head
    lclavicle lhumerus
    lhumerus lradius
    lradius lwrist
    lwrist lhand lthumb
    lhand lfingers
    rclavicle rhumerus
    rhumerus rradius
    rradius rwrist
    rwrist rhand rthumb
    rhand rfingers
  end

#!OML:ASF X:\für Bonn\!DataBase\2005_08_11_Bastian_Final\c3d\Bastian.ASF
:FULLY-SPECIFIED
:DEGREES
16
root 0.450639 17.1344 0.62632 170.53 -7.53632 -171.281
lowerback 19.3028 -2.86764 1.87686
upperback 4.27953 -3.99017 2.02088
thorax -6.12126 -2.27017 2.09378
lowerneck -13.5134 -5.53306 -1.27064
upperneck -0.0864426 -7.1038 8.1802
head 2.74199 -3.03149 2.45774
rclavicle -5.88403e-014 3.73715e-014
rhumerus 76.7888 20.51 10.6118
rradius 39.9806
rwrist -62.7294
rhand -45.9294 -4.38361
rfingers 7.12502
rthumb -18.6778 -33.5069
lclavicle -5.88403e-014 3.73715e-014
lhumerus 71.5823 -26.2031 -21.2567
lradius 30.3747
lwrist 13.451
lhand -43.2489 16.6838
lfingers 7.12502
lthumb -16.098 46.0352
rfemur -9.48062 -7.25166 27.6466
rtibia 52.5776
rfoot -18.2938 -10.5497
rtoes -5.27927
lfemur -12.8458 6.14686 -10.5211
ltibia 57.902
lfoot -15.0656 -0.32023
ltoes -24.4331
17
root 0.457264 17.0513 0.646934 170.386 -7.48239 -171.166
lowerback 19.8196 -2.85594 2.00603
upperback 4.32372 -3.95697 2.06981
thorax -6.35139 -2.26542 2.10006
lowerneck -13.7952 -5.50373 -1.01672
upperneck -0.0764233 -7.08938 8.0431
head 2.77686 -3.01672 2.36166
rclavicle -4.68138e-014 1.74931e-014
rhumerus 76.866 19.9929 11.7205
rradius 40.1952
rwrist -63.4191
rhand -46.0061 -4.46612
rfingers 7.12502
rthumb -18.7516 -33.5823
lclavicle -4.68138e-014 1.74931e-014
lhumerus 71.2669 -25.9466 -20.6093
lradius 30.0012
lwrist 12.6214
lhand -43.2863 16.4385
lfingers 7.12502
lthumb -16.134 45.787
rfemur -10.155 -7.54343 27.6603
rtibia 53.795
rfoot -18.5 -10.1668
rtoes -6.29159
lfemur -14.4357 6.45099 -10.4573
ltibia 60.8665
lfoot -15.2584 -0.267655
ltoes -26.266
18
root 0.463792 16.9549 0.667238 170.244 -7.41569 -171.115
lowerback 20.339 -2.83699 2.0685
upperback 4.35296 -3.92388 2.12037
thorax -6.59405 -2.25881 2.14643
lowerneck -14.0238 -5.47607 -0.87377
upperneck -0.0709627 -7.06493 7.94503
head 2.80761 -2.99889 2.3007
rclavicle -2.48481e-014 6.36111e-015
rhumerus 76.8981 19.5047 12.5623
rradius 40.3338
rwrist -63.8665
rhand -46.0118 -4.54102
rfingers 7.12502
rthumb -18.757 -33.6567
lclavicle -2.48481e-014 6.36111e-015
lhumerus 70.9235 -25.6506 -20.0516
lradius 29.6942
lwrist 11.8857
lhand -43.3224 16.247
lfingers 7.12502
lthumb -16.1689 45.5926
rfemur -10.8339 -7.78409 27.6061
rtibia 55.0692
rfoot -18.7914 -9.76553
rtoes -7.46741
lfemur -15.997 6.77219 -10.4752
ltibia 63.7646
lfoot -15.5426 -0.356296
ltoes -28.1315
19
root 0.46966 16.8452 0.687507 170.151 -7.32906 -171.09
lowerback 20.7994 -2.8165 2.16019
upperback 4.38522 -3.88373 2.13885
thorax -6.80591 -2.24868 2.13548
lowerneck -14.2654 -5.4617 -0.785764
upperneck -0.0697767 -7.05103 7.9335
head 2.84734 -2.98136 2.27817
rclavicle -1.0138e-014 3.97569e-015
rhumerus 76.8386 19.0247 13.0329
rradius 40.3446
rwrist -64.0306
rhand -45.9444 -4.59927
rfingers 7.12502
rthumb -18.6923 -33.7212
lclavicle -1.0138e-014 3.97569e-015
lhumerus 70.5941 -25.2224 -19.6242
lradius 29.4259
lwrist 11.2483
lhand -43.337 16.0089
lfingers 7.12502
lthumb -16.1829 45.3534
rfemur -11.5994 -7.98051 27.5309
rtibia 56.4203
rfoot -19.2212 -9.37465
rtoes -8.66115
lfemur -17.5623 7.12503 -10.5295
ltibia 66.5504
lfoot -15.9432 -0.690186
ltoes -29.0358
20
root 0.475791 16.7221 0.706697 170.087 -7.21582 -171.137
lowerback 21.2452 -2.77555 2.17447
upperback 4.38516 -3.82602 2.16925
thorax -7.03961 -2.22627 2.17651
lowerneck -14.3811 -5.46221 -0.848591
upperneck -0.152118 -7.02937 7.97363
head 2.84462 -2.96467 2.30322
rclavicle -1.04362e-014 1.43125e-014
rhumerus 76.7815 18.5819 13.403
rradius 40.3285
rwrist -64.1365
rhand -45.9023 -4.56116
rfingers 7.12502
rthumb -18.6517 -33.687
lclavicle -1.04362e-014 1.43125e-014
lhumerus 70.3822 -24.7765 -19.6994
lradius 29.2929
lwrist 11.0894
lhand -43.3896 15.8838
lfingers 7.12502
lthumb -16.2335 45.2241
rfemur -12.3881 -8.10156 27.3934
rtibia 57.8524
rfoot -19.8457 -9.0233
rtoes -9.61426
lfemur -19.093 7.49722 -10.6627
ltibia 69.189
lfoot -16.3856 -1.39813
ltoes -29.2451
21
root 0.481199 16.5845 0.726384 170.059 -7.10059 -171.178
lowerback 21.6363 -2.74378 2.21141
upperback 4.40111 -3.77894 2.20799
thorax -7.22723 -2.21059 2.21175
lowerneck -14.5185 -5.47048 -1.03113
upperneck -0.261315 -6.99763 8.09856
head 2.84668 -2.9388 2.37943
rclavicle 2.41523e-014 2.14687e-014
rhumerus 76.6926 18.0954 13.5024
rradius 40.2569
rwrist -64.0657
rhand -45.8441 -4.53999
rfingers 7.12502
rthumb -18.5957 -33.6712
lclavicle 2.41523e-014 2.14687e-014
lhumerus 70.2049 -24.2231 -20.1297
lradius 29.2691
lwrist 11.3209
lhand -43.4415 15.7806
lfingers 7.12502
lthumb -16.2835 45.1168
rfemur -13.2451 -8.23992 27.2667
rtibia 59.3897
rfoot -20.7169 -8.73148
rtoes -10.6013
lfemur -20.6452 7.83911 -10.8045
ltibia 71.6411
lfoot -16.6323 -2.41884
ltoes -28.5462
22
root 0.486815 16.4348 0.745185 170.049 -6.95821 -171.269
lowerback 22.047 -2.70512 2.23128
upperback 4.38243 -3.72019 2.20224
thorax -7.46523 -2.18553 2.20766
lowerneck -14.5942 -5.48348 -1.20956
upperneck -0.370899 -6.97406 8.26179
head 2.83941 -2.91685 2.46861
rclavicle 1.92821e-014 9.54166e-015
rhumerus 76.603 17.6743 13.4571
rradius 40.1432
rwrist -63.9751
rhand -45.838 -4.42854
rfingers 7.12502
rthumb -18.5899 -33.5603
lclavicle 1.92821e-014 9.54166e-015
lhumerus 70.0361 -23.6708 -20.6352
lradius 29.2806
lwrist 11.5595
lhand -43.4467 15.783
lfingers 7.12502
lthumb -16.2885 45.1188
rfemur -14.1374 -8.33968 27.0957
rtibia 61.0073
rfoot -21.8351 -8.51919
rtoes -11.8052
lfemur -22.1416 8.12867 -11.0036
ltibia 73.8445
lfoot -16.741 -3.52866
ltoes -27.4986
23
root 0.492105 16.2681 0.764025 170.069 -6.81534 -171.403
lowerback 22.423 -2.66857 2.22579
upperback 4.36981 -3.672 2.16775
thorax -7.6786 -2.16466 2.18624
lowerneck -14.5992 -5.49383 -1.38676
upperneck -0.574003 -6.93591 8.46222
head 2.78782 -2.88811 2.57294
rclavicle 6.55989e-014 -1.66979e-014
rhumerus 76.5092 17.2128 13.2744
rradius 40.0214
rwrist -63.8737
rhand -45.8755 -4.34949
rfingers 7.12502
rthumb -18.626 -33.4778
lclavicle 6.55989e-014 -1.66979e-014
lhumerus 69.8804 -23.0983 -21.4719
lradius 29.383
lwrist 12.1393
lhand -43.4864 15.7954
lfingers 7.12502
lthumb -16.3268 45.1282
rfemur -15.0968 -8.42102 26.8901
rtibia 62.7228
rfoot -23.1441 -8.41769
rtoes -13.1177
lfemur -23.5966 8.32483 -11.2571
ltibia 75.8112
lfoot -16.8687 -4.53425
ltoes -26.5314
24
root 0.496158 16.099 0.780702 170.115 -6.64081 -171.519
lowerback 22.7768 -2.63844 2.25221
upperback 4.33975 -3.62196 2.13523
thorax -7.90102 -2.1423 2.14709
lowerneck -14.5758 -5.5037 -1.60091
upperneck -0.778334 -6.89238 8.69893
head 2.73412 -2.85623 2.69766
rclavicle -1.42131e-014 2.82274e-014
rhumerus 76.4943 16.6236 13.4145
rradius 40.0273
rwrist -64.2434
rhand -46.0449 -4.19631
rfingers 7.12502
rthumb -18.7889 -33.3089
lclavicle -1.42131e-014 2.82274e-014
lhumerus 69.835 -22.5776 -22.8112
lradius 29.5867
lwrist 13.2603
lhand -43.648 15.9475
lfingers 7.12502
lthumb -16.4823 45.2674
rfemur -16.0923 -8.49916 26.7077
rtibia 64.4941
rfoot -24.6003 -8.39986
rtoes -14.4223
lfemur -24.9474 8.4747 -11.4593
ltibia 77.5311
lfoot -17.1994 -5.42278
ltoes -25.5415
25
root 0.499119 15.9212 0.796986 170.163 -6.39976 -171.659
lowerback 23.1459 -2.57209 2.26594
upperback 4.30708 -3.52735 2.09808
thorax -8.13433 -2.09844 2.09739
lowerneck -14.503 -5.5276 -1.845
upperneck -1.03102 -6.85785 8.94939
head 2.65741 -2.83029 2.83304
rclavicle -3.32964e-014 3.57812e-015
rhumerus 76.4939 15.8185 14.0737
rradius 40.2233
rwrist -65.1158
rhand -46.3174 -4.21206
rfingers 7.12502
rthumb -19.051 -33.299
lclavicle -3.32964e-014 3.57812e-015
lhumerus 69.8848 -22.0801 -24.4972
lradius 29.8645
lwrist 14.7072
lhand -43.867 16.2312
lfingers 7.12502
lthumb -16.6932 45.5334
rfemur -17.1071 -8.55543 26.5129
rtibia 66.3602
rfoot -26.1751 -8.46287
rtoes -15.516
lfemur -26.1613 8.59068 -11.6654
ltibia 79.0772
lfoot -17.976 -5.69652
ltoes -25.6818
26
root 0.500633 15.7299 0.813176 170.235 -6.11849 -171.816
lowerback 23.4908 -2.49983 2.25683
upperback 4.27336 -3.43076 2.06424
thorax -8.35464 -2.05308 2.06102
lowerneck -14.3853 -5.54814 -2.08779
upperneck -1.36605 -6.80813 9.20865
head 2.54379 -2.79794 2.97347
rclavicle 3.33958e-014 -8.34896e-015
rhumerus 76.5345 14.9315 14.865
rradius 40.4627
rwrist -66.1622
rhand -46.6009 -4.23745
rfingers 7.12502
rthumb -19.3236 -33.2974
lclavicle 3.33958e-014 -8.34896e-015
lhumerus 69.915 -21.6197 -26.4006
lradius 30.2132
lwrist 16.4417
lhand -44.1265 16.5448
lfingers 7.12502
lthumb -16.943 45.8258
rfemur -18.2162 -8.5653 26.3172
rtibia 68.3605
rfoot -27.7833 -8.59804
rtoes -16.0854
lfemur -27.2582 8.63679 -11.8852
ltibia 80.5026
lfoot -19.0785 -5.74832
ltoes -25.7453
27
root 0.501756 15.5206 0.82649 170.34 -5.77674 -171.978
lowerback 23.7742 -2.40698 2.25345
upperback 4.22908 -3.30468 2.02031
thorax -8.55576 -1.99251 1.9967
lowerneck -14.1809 -5.57141 -2.30455
upperneck -1.74872 -6.76157 9.45571
head 2.39657 -2.77119 3.1061
rclavicle -1.2424e-014 -8.34896e-015
rhumerus 76.4893 14.0811 15.4608
rradius 40.702
rwrist -67.0498
rhand -46.8106 -4.34514
rfingers 7.12502
rthumb -19.5252 -33.3847
lclavicle -1.2424e-014 -8.34896e-015
lhumerus 69.9767 -21.1968 -28.5041
lradius 30.6489
lwrist 18.4362
lhand -44.452 16.922
lfingers 7.12502
lthumb -17.2562 46.1758
rfemur -19.4257 -8.54334 26.1409
rtibia 70.5312
rfoot -29.4588 -8.76467
rtoes -16.2096
lfemur -28.2091 8.62461 -12.0937
ltibia 81.8829
lfoot -20.5612 -5.71094
ltoes -25.1823
28
root 0.501624 15.2926 0.837827 170.429 -5.3854 -172.117
lowerback 24.0411 -2.29892 2.27741
upperback 4.1994 -3.1558 1.97588
thorax -8.73339 -1.92342 1.90638
lowerneck -13.9862 -5.60078 -2.51798
upperneck -2.14782 -6.71966 9.71636
head 2.24692 -2.74523 3.24284
rclavicle 3.10104e-014 -1.55052e-014
rhumerus 76.3857 13.2319 16.067
rradius 40.9676
rwrist -67.8873
rhand -46.9853 -4.47277
rfingers 7.12502
rthumb -19.6932 -33.4952
lclavicle 3.10104e-014 -1.55052e-014
lhumerus 69.9803 -20.7429 -30.6364
lradius 31.1469
lwrist 20.458
lhand -44.7543 17.3073
lfingers 7.12502
lthumb -17.5472 46.5355
rfemur -20.6889 -8.49976 25.9889
rtibia 72.8784
rfoot -31.3394 -8.8811
rtoes -15.7644
lfemur -28.9692 8.59284 -12.2468
ltibia 83.3235
lfoot -22.7367 -5.64297
ltoes -24.0237
29
root 0.501589 15.0513 0.849051 170.537 -4.98684 -172.256
lowerback 24.2722 -2.18861 2.29893
upperback 4.17146 -3.00513 1.93238
thorax -8.88982 -1.85353 1.81436
lowerneck -13.8134 -5.62367 -2.69825
upperneck -2.51792 -6.67612 9.94062
head 2.1079 -2.71917 3.36096
rclavicle 2.51463e-014 -7.95139e-016
rhumerus 76.2623 12.4072 16.5121
rradius 41.1876
rwrist -68.5477
rhand -47.061 -4.66106
rfingers 7.12502
rthumb -19.7659 -33.6761
lclavicle 2.51463e-014 -7.95139e-016
lhumerus 69.9074 -20.2534 -32.7359
lradius 31.7131
lwrist 22.5228
lhand -45.0355 17.6933
lfingers 7.12502
lthumb -17.8178 46.8971
rfemur -22.0149 -8.42776 25.8465
rtibia 75.3728
rfoot -33.4532 -8.89758
rtoes -14.7811
lfemur -29.6913 8.55936 -12.4033
ltibia 84.9048
lfoot -25.3921 -5.571
ltoes -22.4918
30
root 0.501067 14.7997 0.859014 170.633 -4.5787 -172.374
lowerback 24.4948 -2.07632 2.3323
upperback 4.15337 -2.85105 1.89387
thorax -9.03062 -1.78356 1.71802
lowerneck -13.6761 -5.63703 -2.84002
upperneck -2.8704 -6.62489 10.1276
head 1.9772 -2.68915 3.45927
rclavicle 1.91827e-014 4.37326e-015
rhumerus 76.1251 11.6068 16.7573
rradius 41.3456
rwrist -68.9625
rhand -47.0067 -4.94238
rfingers 7.12502
rthumb -19.7137 -33.9628
lclavicle 1.91827e-014 4.37326e-015
lhumerus 69.6107 -19.6719 -33.9857
lradius 32.0665
lwrist 23.7737
lhand -45.1203 17.9353
lfingers 7.12502
lthumb -17.8994 47.1316
rfemur -23.3351 -8.35045 25.7223
rtibia 77.9743
rfoot -35.6299 -8.89078
rtoes -13.9542
lfemur -30.3675 8.55215 -12.5369
ltibia 86.6127
lfoot -28.3341 -5.57662
ltoes -20.5128
